<svg xmlns="http://www.w3.org/2000/svg" xmlns:xlink="http://www.w3.org/1999/xlink" viewBox="0,0,256,256" width="30px" height="30px" fill-rule="nonzero"><g fill="none" fill-rule="nonzero" stroke="none" stroke-width="1" stroke-linecap="butt" stroke-linejoin="miter" stroke-miterlimit="10" stroke-dasharray="" stroke-dashoffset="0" font-family="none" font-weight="none" font-size="none" text-anchor="none" style="mix-blend-mode: normal"><g transform="scale(16,16)"><path d="M1.136,15.5c-0.17,0 -0.33,-0.066 -0.45,-0.186c-0.248,-0.248 -0.248,-0.651 0,-0.899l8.09,-7.713l0.525,0.526l-7.724,8.095c-0.112,0.111 -0.271,0.177 -0.441,0.177z" fill="#252b47"></path><path d="M5.191,10.811l-3.959,4.149c-0.027,0.027 -0.059,0.04 -0.096,0.04c-0.026,0 -0.063,-0.007 -0.096,-0.04c-0.053,-0.053 -0.053,-0.139 -0.017,-0.175l4.168,-3.974M8.785,6.003l-8.452,8.058c-0.444,0.444 -0.444,1.163 0,1.606c0.221,0.222 0.512,0.333 0.803,0.333c0.291,0 0.581,-0.111 0.803,-0.333l8.061,-8.447l-1.215,-1.217z" fill="#788b9c"></path><g><path d="M10,0.5c-3.03757,0 -5.5,2.46243 -5.5,5.5c0,3.03757 2.46243,5.5 5.5,5.5c3.03757,0 5.5,-2.46243 5.5,-5.5c0,-3.03757 -2.46243,-5.5 -5.5,-5.5z" fill="#d1edff"></path><path d="M10,1c2.757,0 5,2.243 5,5c0,2.757 -2.243,5 -5,5c-2.757,0 -5,-2.243 -5,-5c0,-2.757 2.243,-5 5,-5M10,0c-3.314,0 -6,2.686 -6,6c0,3.314 2.686,6 6,6c3.314,0 6,-2.686 6,-6c0,-3.314 -2.686,-6 -6,-6z" fill="#788b9c"></path></g></g></g></svg>